<?xml version="1.0" standalone="no"?>
<!DOCTYPE svg PUBLIC "-//W3C//DTD SVG 20010904//EN"
 "http://www.w3.org/TR/2001/REC-SVG-20010904/DTD/svg10.dtd">
<svg version="1.0" xmlns="http://www.w3.org/2000/svg"
 width="1440.000000pt" height="1440.000000pt" viewBox="0 0 1440.000000 1440.000000"
 preserveAspectRatio="xMidYMid meet">
<metadata>
Created by potrace 1.14, written by Peter Selinger 2001-2017
</metadata>
<g transform="translate(0.000000,1440.000000) scale(0.100000,-0.100000)"
fill="#000000" stroke="none">
<path d="M1233 11158 c2 -1784 6 -3268 10 -3298 3 -30 9 -89 12 -130 3 -41 8
-88 10 -105 2 -16 7 -57 10 -90 4 -33 10 -89 15 -125 5 -36 12 -85 15 -109 3
-23 8 -57 10 -75 3 -17 8 -44 11 -61 38 -236 92 -483 156 -720 16 -60 31 -114
32 -120 30 -130 238 -720 306 -870 5 -11 48 -105 96 -210 141 -311 289 -591
461 -875 38 -63 76 -126 84 -139 8 -14 17 -30 21 -35 5 -6 58 -87 120 -181 62
-93 116 -174 121 -180 4 -5 64 -89 134 -185 70 -96 129 -177 133 -180 3 -3 39
-48 80 -100 68 -87 310 -380 335 -406 5 -6 39 -44 75 -84 36 -41 76 -86 90
-101 14 -15 68 -73 120 -130 174 -188 522 -531 705 -694 43 -38 83 -75 89 -80
216 -204 745 -628 1136 -911 331 -240 859 -585 1070 -700 19 -10 42 -24 50
-30 8 -6 47 -28 85 -49 39 -21 75 -41 80 -45 6 -4 67 -37 138 -74 l127 -67
118 62 c156 83 412 230 602 347 140 86 420 265 445 285 6 4 93 65 195 135 102
70 212 147 245 172 105 77 340 253 345 260 3 3 21 17 40 30 19 14 42 30 50 37
8 7 58 47 110 89 52 42 113 91 135 109 22 18 60 50 85 70 448 369 1007 911
1376 1335 21 25 41 47 44 50 11 11 78 89 115 134 22 27 45 54 50 60 6 6 38 45
70 86 33 41 65 81 72 88 32 34 293 386 394 532 334 481 624 997 840 1495 22
50 44 99 49 110 5 11 19 45 30 75 11 30 25 64 30 75 77 167 271 784 325 1035
2 8 13 58 25 110 12 52 24 110 26 129 3 19 6 37 9 41 2 4 7 22 10 41 3 19 10
59 15 89 17 99 34 211 45 290 3 25 8 56 10 70 2 14 6 52 10 85 3 33 8 78 10
100 8 60 14 139 21 255 3 58 7 130 9 160 3 42 7 4680 5 6128 l0 232 -5950 0
-5951 0 4 -3242z"/>
</g>
</svg>
